<svg xmlns="http://www.w3.org/2000/svg" viewBox="0 0 1250.5 347.5"><path fill="#21A8CC" d="M198.3 91.3l127 138h-86z"/><path fill="#77052B" d="M325.3 229.3l-244 118 158-118z"/><path fill="#09C" d="M198.3 91.3l41 138h-103z"/><path fill="#A60032" d="M239.3 229.3l-158 118 55-118z"/><path fill="#04819E" d="M198.3 91.3l-62 138-55-92.7z"/><path fill="#006C8E" d="M198.3 91.3l-117 45.3L.3.3z"/><path fill="#D6174F" d="M81.3 136.6l55 92.7-55 118z"/><path fill="#FF367A" d="M81.3 136.6v210.7L.3.3z"/><path fill="#3A3545" d="M381.5 144.8v172.1h114.4v-29.1h-80.7v-143h-33.7M948.4 157.9c-11.8-12-37.9-12.7-37.9-12.7H817v171.3h91s27.3.7 41-13.3c13.9-14.1 17.4-29.3 17.4-58.9v-41.5s.9-28-18-44.9m-14.6 96.6c0 16.1-7.9 34.3-31.9 34.3l-51.5.2V173.4h51.2c22.6 0 32.2 12.3 32.2 36.2v44.9zM771.8 316.6h33.4l-58.1-171.5h-48.7l-56.6 171.5h34.1l47.7-146.8 48.2 146.8M1085.6 193.8h32.2v-12c0-25.7-18.3-39.7-40.9-39.7l-52.9-.4c-22.3 0-40.4 16.9-40.4 39.2l.2 22.8c.1 18.6 14.6 34 33.2 35.3l57.8 4c7.5.5 13.4 6.8 13.4 14.4v16c0 8.1-5.1 15.7-15.8 15.7l-42.1-.1c-7.3 0-14.9-7.8-14.9-15.1l-.1-14.1h-32.2v14.1c0 27.5 18.2 42.1 41.3 42.1h49.5c35.2 0 47.2-18.1 47.2-40.1v-24.1c0-20.3-15.2-34.6-35.6-35.2l-54.5-4.2c-4.4 0-14-4-14-16.1l-.2-10.2c0-11.7 7.6-17.5 19.3-17.5h33.2c9 0 16.2 6.6 16.2 15.5v9.7M1190.1 157.9h10.1v-3.8c0-8-5.7-12.4-12.8-12.4l-16.5-.1c-7 0-12.6 5.3-12.6 12.3l.1 7.1c0 5.8 4.6 10.7 10.4 11.1l18.1 1.3c2.4.2 4.2 2.1 4.2 4.5v5c0 2.5-1.6 4.9-4.9 4.9H1173c-2.3 0-4.7-2.5-4.7-4.7v-4.4H1158v4.4c0 8.6 5.7 13.2 12.9 13.2h15.5c11 0 14.8-5.7 14.8-12.6V176c0-6.4-4.8-10.8-11.1-11l-17.1-1.3c-1.4 0-4.4-1.2-4.4-5.1l-.1-3.2c0-3.7 2.4-5.5 6-5.5h10.4c2.8 0 5.1 2.1 5.1 4.9v3.1M1240.2 141.6v41.2c0 2.5-1.6 4.9-4.9 4.9h-13.2c-2.3 0-4.7-2.5-4.7-4.7v-41.4h-10.1V183c0 8.6 5.7 13.2 12.9 13.2h15.5c11 0 14.8-5.7 14.8-12.6v-42h-10.3zM545.6 289.5v-48.3h61.6v-24.1h-61.6v-44.7H630v-27.3H512.5v171.5h118.1v-27.1h-85"/><path fill="#D6174F" d="M697.8 286.3h51.3l-7.7-24.2h-35.9l-7.7 24.2"/><path fill="#3A3545" d="M1154.5 193.1c0 1.7-1.4 3-3 3h-3.7c-1.7 0-3-1.4-3-3v-3.6c0-1.7 1.4-3 3-3h3.7c1.7 0 3 1.4 3 3v3.6z"/></svg>